<?xml version="1.0" encoding="utf-8"?>
<!-- Generator: Adobe Illustrator 23.0.1, SVG Export Plug-In . SVG Version: 6.00 Build 0)  -->
<svg version="1.1" id="Layer_1" xmlns="http://www.w3.org/2000/svg" xmlns:xlink="http://www.w3.org/1999/xlink" x="0px" y="0px"
	 viewBox="0 0 170.9 158.1" style="enable-background:new 0 0 170.9 158.1;" xml:space="preserve">
<style type="text/css">
	.st0{fill:#50C1AE;}
	.st1{fill:#50BFAC;}
</style>
<title>two</title>
<g id="Layer_1-2">
	<path class="st0" d="M76.8,16.8c0-2.6-0.1-4.9,0-7.1c0.1-1.6,0.4-3.2,0.9-4.7c1.4-3.5,4.7-5.3,8.6-5c3.5,0.3,6.4,2.7,7.3,6.1
		c0.3,1.8,0.5,3.5,0.5,5.3c0.1,1.7,0,3.3,0,4.9c2.3,0.8,16.8,1,21.1,0.4c0.1-0.8,0.3-1.5,0.3-2.3c0-2,0-3.9,0-5.9
		c0.1-4.8,3.4-8.3,8-8.5c4.6-0.3,8.6,3.1,9,7.8c0,0.1,0,0.3,0,0.4c0.1,2.1,0,4.3,0.1,6.5c0.1,0.7,0.1,1.4,0.3,2.1
		c1.1,0.1,2.1,0.2,3.1,0.2c5.7,0,11.5,0.1,17.2,0c9.6-0.3,17.6,7.3,17.9,16.8c0,0.3,0,0.6,0,0.9c-0.1,35.3,0,70.7-0.1,106
		c0,8.4-5.1,15-13,16.9c-1.8,0.4-3.7,0.5-5.6,0.4c-23.2,0-46.4,0-69.6,0c-21.7,0-43.4,0-65.1,0c-4.5,0.2-8.8-1.4-12.1-4.5
		c-3.6-3.2-5.6-7.7-5.5-12.5c0-13,0-25.9,0-38.9c0-22.7,0-45.3,0-67.9c-0.2-6.1,3-11.8,8.2-14.8c2.7-1.6,5.7-2.5,8.9-2.5h21.1
		c0.1-1.4,0.2-2.5,0.2-3.6c0-1.8-0.1-3.6,0-5.4c0.2-4.6,4-8.2,8.6-8c0,0,0.1,0,0.1,0c4.6,0,8.2,3.7,8.2,8.3c0,0,0,0,0,0
		c0.1,2,0,3.9,0,5.9c0,0.8,0.2,1.6,0.3,2.6L76.8,16.8z M153.5,34c-6.9,0-13.7-0.1-20.8,0c-0.1,1.8-0.1,3.1-0.2,4.5
		c-0.2,4.6-4,8.3-8.6,8.3c-4.7-0.1-8.2-3.6-8.3-8.5c0-0.5,0-0.9,0-1.4c-0.1-2.8-0.2-3-3.1-3c-5.1,0-10.2,0-15.2,0
		c-0.9,0-1.8,0.2-2.8,0.2c-0.3,2.2-0.3,4.2-0.8,6.1c-0.8,3.8-4.2,6.6-8.1,6.5c-4.7,0.1-8.3-3.5-8.7-8.6c-0.1-1.3-0.1-2.6-0.2-4
		c-0.8-0.1-1.6-0.2-2.4-0.3c-5.4,0-10.7,0-16.1,0c-2.5,0-2.6,0.3-2.8,2.8c0,1.5-0.1,3-0.5,4.5c-1.3,3.8-5.1,6.2-9.1,5.6
		c-4-0.5-7-3.8-7.4-7.7c-0.1-1.6-0.2-3.1-0.2-4.6c-3.1-0.8-18.8-0.7-20.9,0.1c-0.6,3.3-0.4,104.1,0.2,106.3h135.9
		C154.1,138.4,154.2,37.3,153.5,34z"/>
	<path class="st1" d="M85.5,102.6c-15,0-30.1,0-45.1,0c-1.4,0-2.8-0.1-4.2-0.4c-3.9-0.9-6.6-4.6-6.3-8.6c0.1-3.9,2.9-7.2,6.8-7.9
		c0.9-0.2,1.9-0.3,2.8-0.3c30.6,0,61.3,0,91.9,0c2.1-0.1,4.1,0.4,5.9,1.6c2.9,2.1,4.3,5,3.6,8.6c-0.5,3.4-3.1,6.1-6.4,6.8
		c-1.3,0.3-2.6,0.4-3.9,0.4C115.6,102.7,100.5,102.7,85.5,102.6z"/>
	<path class="st0" d="M85.5,59.8c15.4,0,30.8,0,46.2,0c4.1,0,7.1,1.5,8.7,5.4c1.8,4.3-0.3,9.2-4.6,11c-0.7,0.3-1.4,0.5-2.2,0.6
		c-1,0.1-2.1,0.1-3.1,0.1H40.4c-0.8,0-1.7,0-2.5,0c-4.6-0.2-8.1-4.1-7.9-8.6c0-4.5,3.6-8.1,8-8.3c1-0.1,2.1,0,3.1,0L85.5,59.8z"/>
	<path class="st0" d="M85.5,128.1H40.7c-1,0-2.1,0-3.1,0c-4.4-0.3-7.8-4.1-7.7-8.5c0-4.3,3.3-7.9,7.6-8.4c0.8-0.1,1.5-0.1,2.3-0.1
		H131c0.8,0,1.7,0,2.5,0.1c4.7,0.5,8,4.8,7.4,9.4c-0.5,4-3.6,7.1-7.6,7.4c-1,0.1-2.1,0.1-3.1,0.1L85.5,128.1z"/>
</g>
</svg>
