<svg xmlns="http://www.w3.org/2000/svg" viewBox="0 0 222.13 53.05"><defs><style>.cls-1{fill:#50c1ae;}.cls-2{fill:#fdfdfd;}.cls-3{fill:#fcfdfd;}.cls-4{fill:#fefefe;}.cls-5{fill:#fbfdfc;}.cls-6{fill:#50bfac;}</style></defs><title>ticksvg</title><g id="Layer_2" data-name="Layer 2"><g id="Layer_1-2" data-name="Layer 1"><path class="cls-1" d="M25.79,5.64c0-.88,0-1.64,0-2.39a5.07,5.07,0,0,1,.29-1.56A2.69,2.69,0,0,1,29,0a2.75,2.75,0,0,1,2.44,2.05,9.66,9.66,0,0,1,.16,1.78c0,.56,0,1.13,0,1.65a36.06,36.06,0,0,0,7.07.12,6.14,6.14,0,0,0,.1-.78c0-.66,0-1.32,0-2A2.77,2.77,0,0,1,41.46,0a2.83,2.83,0,0,1,3,2.75c0,.72,0,1.45,0,2.17a5.86,5.86,0,0,0,.09.72c.37,0,.7.06,1,.06,1.92,0,3.85,0,5.77,0a5.84,5.84,0,0,1,6,5.94c0,11.85,0,23.71,0,35.57A5.63,5.63,0,0,1,53,52.89a8.43,8.43,0,0,1-1.88.15H27.76c-7.28,0-14.57,0-21.85,0a5.69,5.69,0,0,1-4.06-1.5A5.5,5.5,0,0,1,0,47.35C0,43,0,38.65,0,34.3V11.5a5.56,5.56,0,0,1,2.77-5,5.52,5.52,0,0,1,3-.82h7.07c0-.47.07-.83.08-1.2,0-.6,0-1.2,0-1.79a2.85,2.85,0,0,1,5.69.08c0,.66,0,1.32,0,2a7.2,7.2,0,0,0,.09.86Zm25.73,5.79c-2.33,0-4.61,0-7,0,0,.59,0,1.06-.07,1.52a2.89,2.89,0,0,1-2.9,2.78,2.8,2.8,0,0,1-2.8-2.84v-.47c0-.95-.07-1-1.05-1H32.61c-.3,0-.61.05-.92.08-.09.74-.12,1.41-.25,2.05a2.78,2.78,0,0,1-2.73,2.18,2.9,2.9,0,0,1-2.91-2.87c0-.43-.05-.87-.07-1.34a7.39,7.39,0,0,0-.81-.1H19.53c-.84,0-.89.08-.93.93a6.08,6.08,0,0,1-.16,1.49,2.8,2.8,0,0,1-3.05,1.88,2.89,2.89,0,0,1-2.48-2.6c-.05-.52-.05-1-.07-1.54a33.6,33.6,0,0,0-7,0c-.19,1.11-.14,34.93.08,35.67H51.5C51.71,46.47,51.74,12.52,51.52,11.43Z"/><path class="cls-2" d="M139.42,10.44l7.48-1.58a2.25,2.25,0,0,1,.6,1.66c-.05,5.56-.06,11.11-.07,16.66a4.79,4.79,0,0,0,0,.56c.26-.16.44-.26.6-.38q3.06-2.31,6.1-4.64a2.75,2.75,0,0,0,1.27-1.83h7.19l0,1a13.15,13.15,0,0,0-4.83,2.77l-5.69,4.55c-.27.21-.52.43-.82.69.22.25.39.47.58.67,2.45,2.63,4.9,5.27,7.36,7.89a18.27,18.27,0,0,0,5.38,4l0,.88h-8.53a22.73,22.73,0,0,0-1.49-2.13c-2.22-2.54-4.47-5-6.72-7.57-.11-.13-.25-.24-.46-.45,0,1.8-.09,3.46,0,5.11s.45,3.29.68,4.93a44.35,44.35,0,0,1-7.49.12,6.4,6.4,0,0,1,.07-1.16,23.69,23.69,0,0,0,.64-5.81c0-6.34,0-12.68,0-19a15.22,15.22,0,0,0-.39-3,4.92,4.92,0,0,0-1.25-2.4A1.41,1.41,0,0,1,139.42,10.44Z"/><path class="cls-2" d="M89.3,43.33h-8a8,8,0,0,1,.08-1.23,38.55,38.55,0,0,0,.57-6.78q0-8.66,0-17.31c0-1.23-.11-2.45-.17-3.81-1,.1-2,.14-3,.29-1.84.29-3.66.65-5.49,1-.4.07-.8.08-1.28.12-.08-1.58-.15-3.08-.23-4.73,3,0,6,.13,8.93.13s6,0,9,0,6-.09,9-.15l-.22,4.66a3,3,0,0,1-1.37,0q-3.63-.6-7.28-1.15a9.28,9.28,0,0,0-1.19,0c0,.4-.09.77-.09,1.14,0,7.25,0,14.5,0,21.76a44.21,44.21,0,0,0,.51,4.69C89.2,42.33,89.24,42.79,89.3,43.33Z"/><path class="cls-2" d="M186.53,33a6.24,6.24,0,0,0,4.75,6.84,5.76,5.76,0,0,0,3.08-.21c1.45-.51,2.87-1.11,4.3-1.69.34-.14.67-.32,1.09-.52l1.14,1.76c-.47.41-.92.84-1.4,1.23a18,18,0,0,1-6.58,3.41,10.29,10.29,0,0,1-12.85-8,13.11,13.11,0,0,1,3.66-12.25c3.18-3.21,7.08-3.94,11.35-2.86a6.78,6.78,0,0,1,4.37,3.64,13.78,13.78,0,0,1,1.43,6.49,1,1,0,0,1-.19.6,10.52,10.52,0,0,1-1.33,1.34,1.71,1.71,0,0,1-1,.23H186.53Zm8.05-3.14a10.34,10.34,0,0,0-.74-4.63,2.88,2.88,0,0,0-2.37-1.93,10.24,10.24,0,0,0-2.34.16,1.83,1.83,0,0,0-1.43,1.23,15.64,15.64,0,0,0-1.12,4.85c0,.24,0,.47,0,.78Z"/><path class="cls-3" d="M135.17,22.7l-2.89,4.08-.94-.63A11.24,11.24,0,0,0,126.17,24c-2.89-.29-3-.25-4.26,2.18a11.94,11.94,0,0,0-1.27,6.13,39.36,39.36,0,0,0,.49,4,4.43,4.43,0,0,0,.4,1.16A4,4,0,0,0,126,40.05a15.93,15.93,0,0,0,4.56-1.16c1.19-.49,2.36-1,3.59-1.57l1.25,2c-.19.12-.43.22-.63.37a25.37,25.37,0,0,1-5.92,3.68,10.46,10.46,0,0,1-14.49-7.39,13.36,13.36,0,0,1-.1-6c1.13-4.82,4.3-7.79,8.89-9.14a14.44,14.44,0,0,1,11.49,1.52A5.57,5.57,0,0,1,135.17,22.7Z"/><path class="cls-4" d="M175.13,43.33h-7.38a5.37,5.37,0,0,1,0-1.27,25.55,25.55,0,0,0,.64-6.1c0-6.14,0-12.29,0-18.44a13.11,13.11,0,0,0-.49-3.35A6.93,6.93,0,0,0,166.77,12a1.69,1.69,0,0,1-.35-1.58l7.46-1.59a2.31,2.31,0,0,1,.61,1.7c-.09,2-.16,4-.16,6.05,0,5.77,0,11.54,0,17.31a32.57,32.57,0,0,0,.7,8.36,2.69,2.69,0,0,1,.05.57C175.13,43,175.13,43.14,175.13,43.33Z"/><path class="cls-3" d="M205.11,21.75l6.35-1.49c.78.64.92,1.6,1.4,2.45,2.79-2.13,5.78-3.2,9.22-1.83A13.39,13.39,0,0,1,221,27.12a9,9,0,0,0-7.26-1.39,2.42,2.42,0,0,0-.1.48c0,3.44,0,6.87.06,10.31a16.73,16.73,0,0,0,1.05,5.36,10.14,10.14,0,0,1,.27,1.43h-8.16a8.78,8.78,0,0,1,.14-1.44,20.43,20.43,0,0,0,.63-4.86c0-2.65,0-5.3,0-7.94a9.72,9.72,0,0,0-1.08-4.46,5.2,5.2,0,0,0-1-1.45A1.19,1.19,0,0,1,205.11,21.75Z"/><path class="cls-4" d="M109.72,43.34h-8.11a6.15,6.15,0,0,1,.08-1.31,23.23,23.23,0,0,0,.67-6c0-2.24,0-4.47,0-6.71a16.92,16.92,0,0,0-.34-3,5.41,5.41,0,0,0-2.39-3.65v-1L108,20.09a1.65,1.65,0,0,1,.53,1.55,33.84,33.84,0,0,0-.17,3.49c0,3.18,0,6.36,0,9.54a18.94,18.94,0,0,0,1.23,7.41A5.05,5.05,0,0,1,109.72,43.34Z"/><path class="cls-5" d="M101,12c.09-1,.14-1.1,1.12-1.41a14.4,14.4,0,0,1,4.37-.68c.75,0,1.25.29,1.38,1a27.67,27.67,0,0,1,.34,3.27,1,1,0,0,1-.94,1.1c-1.53.24-3,.48-4.58.66-.63.07-.86-.09-1-.73C101.36,14.14,101.18,13.05,101,12Z"/><path class="cls-6" d="M28.7,34.44c-5.05,0-10.1,0-15.14,0a5.46,5.46,0,0,1-1.4-.15A2.76,2.76,0,0,1,10,31.42a2.8,2.8,0,0,1,2.27-2.67,5,5,0,0,1,.94-.11H44.09a3.24,3.24,0,0,1,2,.53,2.86,2.86,0,0,1-.93,5.15,5.71,5.71,0,0,1-1.31.12C38.79,34.45,33.74,34.44,28.7,34.44Z"/><path class="cls-1" d="M28.69,20.08c5.17,0,10.34,0,15.5,0a2.87,2.87,0,0,1,2.93,1.81,2.83,2.83,0,0,1-2.28,3.87,9,9,0,0,1-1,0H13.55c-.28,0-.57,0-.85,0a2.85,2.85,0,0,1,0-5.68c.35,0,.69,0,1,0Z"/><path class="cls-1" d="M28.7,43h-15c-.34,0-.69,0-1,0a2.85,2.85,0,0,1,0-5.67,6.37,6.37,0,0,1,.76,0H44a8,8,0,0,1,.85,0,2.86,2.86,0,0,1,2.5,2.86A2.81,2.81,0,0,1,44.78,43c-.35,0-.7,0-1,0Z"/></g></g></svg>